# Blender v3.1.2 OBJ File: ''
# www.blender.org
mtllib cloud.mtl
o cloud
v 1.365262 0.488013 0.490518
v 1.270560 0.589732 0.596923
v 1.407407 0.539016 0.270762
v 1.328736 0.630229 0.281728
v 1.482085 0.457437 0.766461
v 1.340330 0.573765 0.906138
v 1.475272 0.689923 0.773174
v 1.261687 0.716379 0.606118
v 1.225150 0.716379 0.296166
v 1.758589 0.489475 0.882167
v 1.702958 0.601608 0.881985
v 1.965536 0.522880 0.920247
v 1.931384 0.578482 1.141342
v 1.543813 0.689923 1.155697
v 1.937090 0.689923 1.104401
v 1.739470 0.803947 0.842897
v 1.442984 0.841298 0.804693
v 1.958181 0.780899 0.967865
v 1.976004 0.868192 0.852483
v 1.775125 0.933123 0.897847
v 1.604138 0.901435 0.646196
v 1.093545 0.830213 0.314510
v 1.325581 0.809988 0.567539
v 1.496441 0.881475 0.434158
v 1.335356 0.883443 0.280805
v 1.697242 0.921714 0.230363
v 1.517313 0.892176 0.068570
v 1.845542 0.937700 0.408330
v 2.080351 1.031587 0.176964
v 1.906841 0.939701 0.000873
v 1.683953 0.926558 -0.225331
v 2.019799 0.927209 0.568961
v 2.186113 0.928131 0.776057
v 2.275183 0.995086 0.374695
v 2.417153 0.920277 0.518776
v 2.511105 0.973908 0.116922
v 2.389316 1.039656 -0.127473
v 2.671498 0.926179 0.290421
v 2.921543 0.930333 0.059713
v 2.761237 0.934008 -0.121896
v 2.677050 0.973574 -0.410990
v 1.982322 0.913682 -0.375243
v 2.160568 1.024495 -0.342344
v 2.343896 0.905378 -0.398074
v 2.193441 0.906230 -0.555156
v 2.509942 0.841391 -0.622421
v 2.213318 0.840919 -0.683839
v 2.793128 0.853874 -0.525367
v 2.776671 0.741697 -0.509151
v 2.526333 0.741697 -0.643636
v 2.224952 0.741697 -0.759153
v 2.874549 0.840023 -0.234669
v 2.911069 0.811840 0.061173
v 3.057522 0.741697 -0.339878
v 2.943075 0.716379 0.056712
v 2.983122 0.605064 -0.292652
v 2.801406 0.602992 -0.533524
v 3.048530 0.604738 0.042013
v 2.886937 0.535503 0.064537
v 2.670407 0.549558 -0.082871
v 2.689075 0.479828 -0.422839
v 2.215690 0.640663 -0.699195
v 2.556343 0.631886 -0.706301
v 2.350851 0.548306 -0.413624
v 2.182817 0.567302 -0.486380
v 2.146453 0.458777 -0.250972
v 1.989317 0.557462 -0.332835
v 2.396129 0.384922 -0.134186
v 2.080351 0.431887 0.176963
v 1.910983 0.472441 0.005076
v 1.756371 0.544598 -0.151835
v 2.596975 0.409274 0.104953
v 2.648969 0.538857 0.286362
v 2.289958 0.415699 0.389689
v 2.475834 0.480228 0.578330
v 2.011056 0.447096 0.625562
v 1.823049 0.445355 0.430494
v 2.176652 0.521164 0.718701
v 1.409897 0.480939 0.049218
v 1.614922 0.438152 0.241838
v 2.286554 0.585575 0.923336
v 2.508446 0.596546 0.611426
v 2.569965 0.716379 0.673861
v 2.338492 0.689923 1.067806
v 2.859161 0.607171 0.405240
v 2.781276 0.716379 0.385613
v 2.926712 0.860136 0.426279
v 2.571181 0.847581 0.675095
v 2.294934 0.798131 0.951710
v 1.847817 0.599902 -0.658565
v 1.671712 0.626881 -0.237754
v 1.603958 0.716379 -0.306515
v 1.893814 0.741697 -0.490304
v 1.310596 0.608409 -0.048493
v 1.418648 0.716379 -0.018482
v 1.449794 0.805326 -0.005139
v 1.603749 0.819427 -0.306728
v 1.861608 0.851821 -0.611868
vt 0.437500 0.000000
vt 0.437500 0.062500
vt 0.375000 0.000000
vt 0.375000 0.062500
vt 0.500000 0.000000
vt 0.500000 0.062500
vt 0.500000 0.125000
vt 0.437500 0.125000
vt 0.375000 0.125000
vt 0.562500 0.000000
vt 0.562500 0.062500
vt 0.625000 0.000000
vt 0.625000 0.062500
vt 0.562500 0.125000
vt 0.625000 0.125000
vt 0.562500 0.187500
vt 0.500000 0.187500
vt 0.625000 0.187500
vt 0.625000 0.250000
vt 0.562500 0.250000
vt 0.500000 0.250000
vt 0.375000 0.187500
vt 0.437500 0.187500
vt 0.437500 0.250000
vt 0.375000 0.250000
vt 0.437500 0.312500
vt 0.375000 0.312500
vt 0.500000 0.312500
vt 0.500000 0.375000
vt 0.437500 0.375000
vt 0.375000 0.375000
vt 0.562500 0.312500
vt 0.625000 0.312500
vt 0.562500 0.375000
vt 0.625000 0.375000
vt 0.562500 0.437500
vt 0.500000 0.437500
vt 0.625000 0.437500
vt 0.625000 0.500000
vt 0.562500 0.500000
vt 0.500000 0.500000
vt 0.375000 0.437500
vt 0.437500 0.437500
vt 0.437500 0.500000
vt 0.375000 0.500000
vt 0.437500 0.562500
vt 0.375000 0.562500
vt 0.500000 0.562500
vt 0.500000 0.625000
vt 0.437500 0.625000
vt 0.375000 0.625000
vt 0.562500 0.562500
vt 0.625000 0.562500
vt 0.562500 0.625000
vt 0.625000 0.625000
vt 0.562500 0.687500
vt 0.500000 0.687500
vt 0.625000 0.687500
vt 0.625000 0.750000
vt 0.562500 0.750000
vt 0.500000 0.750000
vt 0.375000 0.687500
vt 0.437500 0.687500
vt 0.437500 0.750000
vt 0.375000 0.750000
vt 0.437500 0.812500
vt 0.375000 0.812500
vt 0.500000 0.812500
vt 0.500000 0.875000
vt 0.437500 0.875000
vt 0.375000 0.875000
vt 0.562500 0.812500
vt 0.625000 0.812500
vt 0.562500 0.875000
vt 0.625000 0.875000
vt 0.562500 0.937500
vt 0.500000 0.937500
vt 0.625000 0.937500
vt 0.625000 1.000000
vt 0.562500 1.000000
vt 0.500000 1.000000
vt 0.375000 0.937500
vt 0.437500 0.937500
vt 0.437500 1.000000
vt 0.375000 1.000000
vt 0.687500 0.000000
vt 0.687500 0.062500
vt 0.750000 0.000000
vt 0.750000 0.062500
vt 0.750000 0.125000
vt 0.687500 0.125000
vt 0.812500 0.000000
vt 0.812500 0.062500
vt 0.875000 0.000000
vt 0.875000 0.062500
vt 0.812500 0.125000
vt 0.875000 0.125000
vt 0.812500 0.187500
vt 0.750000 0.187500
vt 0.875000 0.187500
vt 0.875000 0.250000
vt 0.812500 0.250000
vt 0.750000 0.250000
vt 0.687500 0.187500
vt 0.687500 0.250000
vt 0.187500 0.000000
vt 0.187500 0.062500
vt 0.125000 0.000000
vt 0.125000 0.062500
vt 0.250000 0.000000
vt 0.250000 0.062500
vt 0.250000 0.125000
vt 0.187500 0.125000
vt 0.125000 0.125000
vt 0.312500 0.000000
vt 0.312500 0.062500
vt 0.312500 0.125000
vt 0.312500 0.187500
vt 0.250000 0.187500
vt 0.312500 0.250000
vt 0.250000 0.250000
vt 0.125000 0.187500
vt 0.187500 0.187500
vt 0.187500 0.250000
vt 0.125000 0.250000
vn -0.8296 -0.4875 -0.2723
vn -0.7518 -0.6221 -0.2187
vn -0.5433 -0.8281 0.1383
vn -0.6660 -0.7374 0.1122
vn -0.5447 0.8221 0.1654
vn -0.6207 -0.0999 0.7777
vn -0.9806 -0.0551 -0.1881
vn -0.6315 -0.7718 0.0744
vn -0.1346 -0.8243 0.5499
vn 0.0639 0.0333 0.9974
vn -0.1676 -0.0816 0.9825
vn -0.3070 -0.9331 0.1872
vn -0.2680 -0.9515 0.1512
vn 0.1231 0.3066 0.9439
vn -0.0152 0.7606 0.6491
vn -0.3896 -0.9183 0.0698
vn -0.4115 0.9084 0.0737
vn -0.1531 -0.2326 0.9604
vn 0.0731 0.8247 0.5608
vn -0.0721 0.9507 0.3015
vn -0.2379 0.7919 0.5624
vn 0.0738 -0.4076 0.9102
vn -0.1628 -0.3478 0.9233
vn -0.2848 0.9558 0.0731
vn -0.6462 -0.7594 0.0762
vn -0.5580 0.6119 0.5606
vn -0.4529 0.5860 0.6719
vn -0.8466 -0.2754 0.4555
vn -0.3516 0.9348 0.0506
vn -0.2961 0.9532 0.0606
vn -0.1769 0.9549 0.2386
vn -0.2128 0.9483 0.2357
vn -0.0898 0.9902 0.1070
vn -0.1127 0.9921 -0.0558
vn -0.1591 0.9872 -0.0108
vn -0.1609 0.9869 -0.0129
vn -0.1598 0.9871 -0.0117
vn -0.1559 0.9869 0.0413
vn -0.2569 0.9579 0.1280
vn -0.2955 0.9349 -0.1966
vn -0.1277 0.9911 -0.0389
vn -0.1119 0.9923 0.0526
vn -0.1621 0.9867 -0.0141
vn 0.0455 0.9988 0.0159
vn 0.3475 0.9059 0.2422
vn -0.2137 0.9625 0.1673
vn -0.1635 0.9783 0.1269
vn 0.2735 0.9371 0.2170
vn -0.1557 0.9603 0.2316
vn -0.0693 0.9666 0.2467
vn 0.1388 0.9893 0.0458
vn 0.1556 0.9706 0.1836
vn 0.2203 0.9374 0.2696
vn 0.1898 0.9774 0.0934
vn 0.1255 0.9801 0.1536
vn 0.0964 0.9932 -0.0650
vn 0.2695 0.9552 0.1227
vn 0.2722 0.9608 0.0522
vn 0.0093 0.9977 -0.0671
vn -0.4999 0.8513 -0.1592
vn -0.4060 0.9108 -0.0752
vn -0.0466 0.9987 -0.0208
vn 0.3804 0.8014 -0.4615
vn -0.1982 0.8908 -0.4088
vn -0.3922 0.7770 -0.4924
vn 0.4143 0.8212 -0.3924
vn 0.1667 0.9738 -0.1544
vn 0.0896 0.8937 -0.4397
vn -0.1534 0.6008 -0.7845
vn 0.0415 0.9685 -0.2455
vn 0.3260 -0.1819 -0.9277
vn 0.4574 0.2564 -0.8515
vn 0.1967 0.2349 -0.9519
vn 0.2862 0.6004 -0.7467
vn 0.6685 0.7378 -0.0937
vn 0.5616 0.8189 -0.1183
vn 0.3895 0.8612 -0.3264
vn 0.9875 -0.0889 -0.1304
vn 0.4837 0.8749 0.0236
vn 0.9135 0.2931 0.2823
vn 0.9453 -0.1782 -0.2733
vn 0.2427 0.8826 -0.4027
vn 0.4471 -0.4998 -0.7418
vn 0.7738 0.2409 -0.5858
vn 0.7202 0.6475 0.2492
vn 0.8412 -0.5150 -0.1649
vn 0.3837 -0.9203 -0.0759
vn 0.0562 -0.9827 -0.1763
vn 0.1204 -0.9893 -0.0823
vn 0.7975 -0.5809 0.1629
vn 0.3087 -0.5062 -0.8053
vn -0.0054 0.4945 -0.8691
vn 0.4000 0.5343 -0.7447
vn 0.5781 0.2401 -0.7798
vn 0.0541 -0.9695 -0.2389
vn -0.1407 -0.5877 -0.7967
vn -0.0312 -0.9435 -0.3300
vn 0.0078 -0.9630 -0.2695
vn 0.0738 -0.9100 -0.4081
vn -0.3039 -0.8465 -0.4372
vn -0.1872 -0.8609 -0.4730
vn -0.0209 -0.8646 -0.5021
vn -0.2400 -0.9658 -0.0978
vn -0.1496 -0.9851 -0.0850
vn -0.3856 -0.8697 -0.3082
vn -0.1621 -0.9474 -0.2759
vn 0.4761 -0.8560 0.2017
vn 0.5283 -0.7662 -0.3657
vn 0.2865 -0.8179 -0.4989
vn 0.4090 -0.7944 0.4489
vn 0.4084 -0.7941 0.4502
vn 0.4024 -0.7950 0.4539
vn 0.4031 -0.7954 0.4526
vn 0.3253 -0.9456 0.0030
vn -0.0263 -0.9920 0.1231
vn -0.0477 -0.9984 -0.0289
vn -0.0960 -0.9952 0.0189
vn -0.0223 -0.9993 0.0304
vn 0.0154 -0.9506 0.3100
vn 0.2035 -0.9098 0.3617
vn 0.2577 -0.9254 0.2778
vn 0.1064 -0.9589 0.2630
vn -0.0797 -0.9931 0.0856
vn 0.0702 -0.9918 0.1069
vn -0.0489 -0.9249 -0.3771
vn -0.0328 -0.9825 -0.1833
vn -0.0400 -0.9806 -0.1920
vn -0.0070 -0.9989 0.0459
vn -0.0762 -0.9896 0.1219
vn -0.1013 -0.9926 -0.0671
vn -0.3997 -0.8878 0.2282
vn -0.4509 -0.8465 -0.2829
vn 0.1858 -0.9614 0.2028
vn 0.1823 -0.9465 0.2662
vn 0.3590 -0.3472 0.8664
vn 0.2666 -0.9511 0.1562
vn 0.6716 -0.5830 0.4573
vn 0.6090 -0.7306 0.3088
vn 0.3112 -0.8200 0.4804
vn 0.0863 0.3095 0.9470
vn 0.8338 -0.3542 0.4233
vn 0.1723 -0.9544 0.2438
vn 0.1886 -0.9578 0.2169
vn 0.4099 -0.8853 0.2196
vn 0.7225 0.5823 0.3728
vn 0.7043 0.6196 0.3465
vn 0.4257 -0.5803 0.6943
vn 0.6665 0.5631 0.4886
vn 0.5751 -0.7011 0.4216
vn 0.5736 -0.0130 0.8190
vn 0.8640 0.2698 0.4250
vn 0.6922 -0.7188 0.0654
vn 0.9956 -0.0884 -0.0310
vn 0.1534 0.9709 0.1838
vn 0.1271 0.9648 0.2303
vn 0.1985 0.9488 0.2456
vn 0.0510 0.8275 0.5592
vn -0.0046 0.7306 0.6827
vn 0.6111 0.6802 0.4047
vn 0.7087 -0.0132 0.7054
vn 0.2936 0.8463 0.4445
vn 0.2496 0.9485 0.1952
vn -0.0120 0.7983 0.6021
vn -0.0120 0.7987 0.6016
vn -0.0114 0.7992 0.6010
vn -0.0105 0.8006 0.5991
vn -0.0388 -0.9929 -0.1125
vn 0.0700 -0.9464 -0.3154
vn -0.3206 -0.8218 -0.4711
vn -0.2221 -0.9745 -0.0305
vn -0.6771 -0.6960 -0.2387
vn -0.3985 0.7521 -0.5249
vn -0.1536 0.7759 -0.6119
vn -0.5846 -0.3737 -0.7201
vn -0.1882 -0.7953 -0.5762
vn -0.2959 -0.7146 -0.6339
vn -0.2953 -0.7154 -0.6332
vn -0.2960 -0.7138 -0.6348
vn -0.8288 -0.5435 0.1332
vn -0.7495 -0.6566 0.0846
vn -0.7057 0.7085 -0.0080
vn -0.6218 -0.6835 -0.3824
vn -0.2966 -0.7128 -0.6355
vn -0.5970 0.7043 -0.3841
vn -0.7873 0.3516 -0.5065
vn -0.8906 -0.0027 -0.4548
vn -0.6330 -0.6691 -0.3893
vn -0.6191 0.3241 -0.7153
vn -0.2475 0.9049 -0.3462
vn -0.5163 0.7509 -0.4118
vn -0.6245 0.7272 -0.2848
vn -0.6500 0.7040 -0.2862
vn -0.5603 0.4581 -0.6901
vn -0.1544 -0.7522 -0.6405
vn -0.3103 -0.7440 -0.5918
vn -0.7636 -0.0029 -0.6456
vn -0.2600 0.9584 -0.1179
vn -0.2926 0.7077 -0.6431
vn -0.0666 0.8856 -0.4597
vn -0.1272 0.9736 -0.1896
usemtl cloud
s 1
f 1/1/1 2/2/1 3/3/1
f 3/3/2 2/2/2 4/4/2
f 5/5/3 6/6/3 1/1/3
f 1/1/4 6/6/4 2/2/4
f 6/6/5 7/7/5 2/2/5
f 2/2/6 7/7/6 8/8/6
f 2/2/7 8/8/7 4/4/7
f 4/4/8 8/8/8 9/9/8
f 5/5/9 10/10/9 6/6/9
f 6/6/10 10/10/10 11/11/10
f 10/10/11 12/12/11 11/11/11
f 11/11/12 12/12/12 13/13/12
f 11/11/13 13/13/13 14/14/13
f 14/14/14 13/13/14 15/15/14
f 6/6/15 11/11/15 7/7/15
f 7/7/16 11/11/16 14/14/16
f 14/14/17 16/16/17 7/7/17
f 7/7/18 16/16/18 17/17/18
f 15/15/19 18/18/19 14/14/19
f 14/14/20 18/18/20 16/16/20
f 18/18/21 19/19/21 16/16/21
f 16/16/22 19/19/22 20/20/22
f 16/16/23 20/20/23 17/17/23
f 17/17/24 20/20/24 21/21/24
f 9/9/25 8/8/25 22/22/25
f 22/22/26 8/8/26 23/23/26
f 8/8/27 7/7/27 23/23/27
f 23/23/28 7/7/28 17/17/28
f 23/23/29 17/17/29 24/24/29
f 24/24/30 17/17/30 21/21/30
f 22/22/31 23/23/31 25/25/31
f 25/25/32 23/23/32 24/24/32
f 24/24/33 26/26/33 25/25/33
f 25/25/34 26/26/34 27/27/34
f 21/21/35 28/28/36 24/24/37
f 24/24/38 28/28/38 26/26/38
f 28/28/39 29/29/39 26/26/39
f 26/26/40 29/29/40 30/30/40
f 26/26/41 30/30/41 27/27/41
f 27/27/42 30/30/42 31/31/42
f 21/21/35 20/20/43 28/28/36
f 28/28/44 20/20/44 32/32/44
f 20/20/45 19/19/45 32/32/45
f 32/32/46 19/19/46 33/33/46
f 32/32/47 33/33/47 34/34/47
f 34/34/48 33/33/48 35/35/48
f 28/28/49 32/32/49 29/29/49
f 29/29/50 32/32/50 34/34/50
f 34/34/51 36/36/51 29/29/51
f 29/29/52 36/36/52 37/37/52
f 35/35/53 38/38/53 34/34/53
f 34/34/54 38/38/54 36/36/54
f 38/38/55 39/39/55 36/36/55
f 36/36/56 39/39/56 40/40/56
f 36/36/57 40/40/57 37/37/57
f 37/37/58 40/40/58 41/41/58
f 31/31/59 30/30/59 42/42/59
f 42/42/60 30/30/60 43/43/60
f 30/30/61 29/29/61 43/43/61
f 43/43/62 29/29/62 37/37/62
f 43/43/63 37/37/63 44/44/63
f 44/44/64 37/37/64 41/41/64
f 42/42/65 43/43/65 45/45/65
f 45/45/66 43/43/66 44/44/66
f 44/44/67 46/46/67 45/45/67
f 45/45/68 46/46/68 47/47/68
f 41/41/69 48/48/69 44/44/69
f 44/44/70 48/48/70 46/46/70
f 48/48/71 49/49/71 46/46/71
f 46/46/72 49/49/72 50/50/72
f 46/46/73 50/50/73 47/47/73
f 47/47/74 50/50/74 51/51/74
f 41/41/75 40/40/75 48/48/75
f 48/48/76 40/40/76 52/52/76
f 40/40/77 39/39/77 52/52/77
f 52/52/78 39/39/78 53/53/78
f 52/52/79 53/53/79 54/54/79
f 54/54/80 53/53/80 55/55/80
f 48/48/81 52/52/81 49/49/81
f 49/49/82 52/52/82 54/54/82
f 54/54/83 56/56/83 49/49/83
f 49/49/84 56/56/84 57/57/84
f 55/55/85 58/58/85 54/54/85
f 54/54/86 58/58/86 56/56/86
f 58/58/87 59/59/87 56/56/87
f 56/56/88 59/59/88 60/60/88
f 56/56/89 60/60/89 57/57/89
f 57/57/90 60/60/90 61/61/90
f 51/51/91 50/50/91 62/62/91
f 62/62/92 50/50/92 63/63/92
f 50/50/93 49/49/93 63/63/93
f 63/63/94 49/49/94 57/57/94
f 63/63/95 57/57/95 64/64/95
f 64/64/96 57/57/96 61/61/96
f 62/62/97 63/63/97 65/65/97
f 65/65/98 63/63/98 64/64/98
f 64/64/99 66/66/99 65/65/99
f 65/65/100 66/66/100 67/67/100
f 61/61/101 68/68/101 64/64/101
f 64/64/102 68/68/102 66/66/102
f 68/68/103 69/69/103 66/66/103
f 66/66/104 69/69/104 70/70/104
f 66/66/105 70/70/105 67/67/105
f 67/67/106 70/70/106 71/71/106
f 61/61/107 60/60/107 68/68/107
f 68/68/108 60/60/108 72/72/108
f 60/60/109 59/59/109 72/72/109
f 72/72/110 59/59/111 73/73/112
f 72/72/110 73/73/112 74/74/113
f 74/74/114 73/73/114 75/75/114
f 68/68/115 72/72/115 69/69/115
f 69/69/116 72/72/116 74/74/116
f 74/74/117 76/76/117 69/69/117
f 69/69/118 76/76/118 77/77/118
f 75/75/119 78/78/119 74/74/119
f 74/74/120 78/78/120 76/76/120
f 78/78/121 12/79/121 76/76/121
f 76/76/122 12/79/122 10/80/122
f 76/76/123 10/80/123 77/77/123
f 77/77/124 10/80/124 5/81/124
f 71/71/125 70/70/125 79/82/125
f 79/82/126 70/70/126 80/83/126
f 70/70/127 69/69/127 80/83/127
f 80/83/128 69/69/128 77/77/128
f 80/83/129 77/77/129 1/84/129
f 1/84/130 77/77/130 5/81/130
f 79/82/131 80/83/131 3/85/131
f 3/85/132 80/83/132 1/84/132
f 78/86/133 81/87/133 12/12/133
f 12/12/134 81/87/134 13/13/134
f 75/88/135 82/89/135 78/86/135
f 78/86/136 82/89/136 81/87/136
f 82/89/137 83/90/137 81/87/137
f 81/87/138 83/90/138 84/91/138
f 81/87/139 84/91/139 13/13/139
f 13/13/140 84/91/140 15/15/140
f 75/88/141 73/92/141 82/89/141
f 82/89/142 73/92/142 85/93/142
f 73/92/143 59/94/143 85/93/143
f 85/93/144 59/94/144 58/95/144
f 85/93/145 58/95/145 86/96/145
f 86/96/146 58/95/146 55/97/146
f 82/89/147 85/93/147 83/90/147
f 83/90/148 85/93/148 86/96/148
f 86/96/149 87/98/149 83/90/149
f 83/90/150 87/98/150 88/99/150
f 55/97/151 53/100/151 86/96/151
f 86/96/152 53/100/152 87/98/152
f 53/100/153 39/101/153 87/98/153
f 87/98/154 39/101/154 38/102/154
f 87/98/155 38/102/155 88/99/155
f 88/99/156 38/102/156 35/103/156
f 15/15/157 84/91/157 18/18/157
f 18/18/158 84/91/158 89/104/158
f 84/91/159 83/90/159 89/104/159
f 89/104/160 83/90/160 88/99/160
f 89/104/161 88/99/161 33/105/161
f 33/105/162 88/99/162 35/103/162
f 18/18/163 89/104/164 19/19/165
f 19/19/165 89/104/164 33/105/166
f 67/106/167 90/107/167 65/108/167
f 65/108/168 90/107/168 62/109/168
f 71/110/169 91/111/169 67/106/169
f 67/106/170 91/111/170 90/107/170
f 91/111/171 92/112/171 90/107/171
f 90/107/172 92/112/172 93/113/172
f 90/107/173 93/113/173 62/109/173
f 62/109/174 93/113/174 51/114/174
f 71/110/175 79/115/175 91/111/175
f 91/111/176 79/115/177 94/116/178
f 79/115/179 3/3/179 94/116/179
f 94/116/180 3/3/180 4/4/180
f 94/116/181 4/4/181 95/117/181
f 95/117/182 4/4/182 9/9/182
f 91/111/176 94/116/178 92/112/183
f 92/112/184 94/116/184 95/117/184
f 95/117/185 96/118/185 92/112/185
f 92/112/186 96/118/186 97/119/186
f 9/9/187 22/22/187 95/117/187
f 95/117/188 22/22/188 96/118/188
f 22/22/189 25/25/189 96/118/189
f 96/118/190 25/25/190 27/120/190
f 96/118/191 27/120/191 97/119/191
f 97/119/192 27/120/192 31/121/192
f 51/114/193 93/113/193 47/122/193
f 47/122/194 93/113/194 98/123/194
f 93/113/195 92/112/195 98/123/195
f 98/123/196 92/112/196 97/119/196
f 98/123/197 97/119/197 42/124/197
f 42/124/198 97/119/198 31/121/198
f 47/122/199 98/123/199 45/125/199
f 45/125/200 98/123/200 42/124/200
