# Blender v3.1.2 OBJ File: 'sensa.blend'
# www.blender.org
mtllib sensa.mtl
o sensa_setumei_平面.001
v 0.497267 0.596267 1.474522
v 0.497267 0.025317 1.474522
v 0.497267 0.596267 0.903572
v 0.497267 0.025317 0.903572
vt 0.001227 1.011322
vt 0.001227 -0.011322
vt 0.998773 -0.011322
vt 0.998773 1.011322
vn 1.0000 0.0000 0.0000
usemtl sensa_setumei
s off
f 1/1/1 2/2/1 4/3/1 3/4/1
o sensa_antena_円柱.001
v 0.299622 0.837354 1.062410
v 0.299622 1.064579 1.062410
v 0.303647 0.837354 1.062806
v 0.303647 1.064579 1.062806
v 0.307517 0.837354 1.063980
v 0.307517 1.064579 1.063980
v 0.311084 0.837354 1.065887
v 0.311084 1.064579 1.065887
v 0.314210 0.837354 1.068452
v 0.314210 1.064579 1.068452
v 0.316776 0.837354 1.071579
v 0.316776 1.064579 1.071579
v 0.318682 0.837354 1.075145
v 0.318682 1.064579 1.075145
v 0.319856 0.837354 1.079015
v 0.319856 1.064579 1.079015
v 0.320253 0.837354 1.083040
v 0.320253 1.064579 1.083040
v 0.319856 0.837354 1.087065
v 0.319856 1.064579 1.087065
v 0.318682 0.837354 1.090935
v 0.318682 1.064579 1.090935
v 0.316776 0.837354 1.094502
v 0.316776 1.064579 1.094502
v 0.314210 0.837354 1.097628
v 0.314210 1.064579 1.097628
v 0.311084 0.837354 1.100194
v 0.311084 1.064579 1.100194
v 0.307517 0.837354 1.102100
v 0.307517 1.064579 1.102100
v 0.303647 0.837354 1.103274
v 0.303647 1.064579 1.103274
v 0.299622 0.837354 1.103671
v 0.299622 1.064579 1.103671
v 0.295597 0.837354 1.103274
v 0.295597 1.064579 1.103274
v 0.291727 0.837354 1.102100
v 0.291727 1.064579 1.102100
v 0.288161 0.837354 1.100194
v 0.288161 1.064579 1.100194
v 0.285034 0.837354 1.097628
v 0.285034 1.064579 1.097628
v 0.282469 0.837354 1.094502
v 0.282469 1.064579 1.094502
v 0.280562 0.837354 1.090935
v 0.280562 1.064579 1.090935
v 0.279388 0.837354 1.087065
v 0.279388 1.064579 1.087065
v 0.278992 0.837354 1.083040
v 0.278992 1.064579 1.083040
v 0.279388 0.837354 1.079015
v 0.279388 1.064579 1.079015
v 0.280562 0.837354 1.075145
v 0.280562 1.064579 1.075145
v 0.282469 0.837354 1.071579
v 0.282469 1.064579 1.071579
v 0.285034 0.837354 1.068452
v 0.285034 1.064579 1.068452
v 0.288161 0.837354 1.065887
v 0.288161 1.064579 1.065887
v 0.291727 0.837354 1.063980
v 0.291727 1.064579 1.063980
v 0.295597 0.837354 1.062806
v 0.295597 1.064579 1.062806
vt 1.000000 0.500000
vt 1.000000 1.000000
vt 0.968750 1.000000
vt 0.968750 0.500000
vt 0.937500 1.000000
vt 0.937500 0.500000
vt 0.906250 1.000000
vt 0.906250 0.500000
vt 0.875000 1.000000
vt 0.875000 0.500000
vt 0.843750 1.000000
vt 0.843750 0.500000
vt 0.812500 1.000000
vt 0.812500 0.500000
vt 0.781250 1.000000
vt 0.781250 0.500000
vt 0.750000 1.000000
vt 0.750000 0.500000
vt 0.718750 1.000000
vt 0.718750 0.500000
vt 0.687500 1.000000
vt 0.687500 0.500000
vt 0.656250 1.000000
vt 0.656250 0.500000
vt 0.625000 1.000000
vt 0.625000 0.500000
vt 0.593750 1.000000
vt 0.593750 0.500000
vt 0.562500 1.000000
vt 0.562500 0.500000
vt 0.531250 1.000000
vt 0.531250 0.500000
vt 0.500000 1.000000
vt 0.500000 0.500000
vt 0.468750 1.000000
vt 0.468750 0.500000
vt 0.437500 1.000000
vt 0.437500 0.500000
vt 0.406250 1.000000
vt 0.406250 0.500000
vt 0.375000 1.000000
vt 0.375000 0.500000
vt 0.343750 1.000000
vt 0.343750 0.500000
vt 0.312500 1.000000
vt 0.312500 0.500000
vt 0.281250 1.000000
vt 0.281250 0.500000
vt 0.250000 1.000000
vt 0.250000 0.500000
vt 0.218750 1.000000
vt 0.218750 0.500000
vt 0.187500 1.000000
vt 0.187500 0.500000
vt 0.156250 1.000000
vt 0.156250 0.500000
vt 0.125000 1.000000
vt 0.125000 0.500000
vt 0.093750 1.000000
vt 0.093750 0.500000
vt 0.062500 1.000000
vt 0.062500 0.500000
vt 0.296822 0.485388
vt 0.250000 0.490000
vt 0.203178 0.485388
vt 0.158156 0.471731
vt 0.116663 0.449553
vt 0.080294 0.419706
vt 0.050447 0.383337
vt 0.028269 0.341844
vt 0.014612 0.296822
vt 0.010000 0.250000
vt 0.014612 0.203178
vt 0.028269 0.158156
vt 0.050447 0.116663
vt 0.080294 0.080294
vt 0.116663 0.050447
vt 0.158156 0.028269
vt 0.203178 0.014612
vt 0.250000 0.010000
vt 0.296822 0.014612
vt 0.341844 0.028269
vt 0.383337 0.050447
vt 0.419706 0.080294
vt 0.449553 0.116663
vt 0.471731 0.158156
vt 0.485388 0.203178
vt 0.490000 0.250000
vt 0.485388 0.296822
vt 0.471731 0.341844
vt 0.449553 0.383337
vt 0.419706 0.419706
vt 0.383337 0.449553
vt 0.341844 0.471731
vt 0.031250 1.000000
vt 0.031250 0.500000
vt 0.000000 1.000000
vt 0.000000 0.500000
vt 0.750000 0.490000
vt 0.796822 0.485388
vt 0.841844 0.471731
vt 0.883337 0.449553
vt 0.919706 0.419706
vt 0.949553 0.383337
vt 0.971731 0.341844
vt 0.985388 0.296822
vt 0.990000 0.250000
vt 0.985388 0.203178
vt 0.971731 0.158156
vt 0.949553 0.116663
vt 0.919706 0.080294
vt 0.883337 0.050447
vt 0.841844 0.028269
vt 0.796822 0.014612
vt 0.750000 0.010000
vt 0.703178 0.014612
vt 0.658156 0.028269
vt 0.616663 0.050447
vt 0.580294 0.080294
vt 0.550447 0.116663
vt 0.528269 0.158156
vt 0.514612 0.203178
vt 0.510000 0.250000
vt 0.514612 0.296822
vt 0.528269 0.341844
vt 0.550447 0.383337
vt 0.580294 0.419706
vt 0.616663 0.449553
vt 0.658156 0.471731
vt 0.703178 0.485388
vn 0.0000 -0.6857 -0.7279
vn 0.0000 0.6857 -0.7279
vn 0.1420 0.6857 -0.7139
vn 0.1420 -0.6857 -0.7139
vn 0.2786 0.6857 -0.6725
vn 0.2786 -0.6857 -0.6725
vn 0.4044 0.6857 -0.6052
vn 0.4044 -0.6857 -0.6052
vn 0.5147 0.6857 -0.5147
vn 0.5147 -0.6857 -0.5147
vn 0.6052 0.6857 -0.4044
vn 0.6052 -0.6857 -0.4044
vn 0.6725 0.6857 -0.2786
vn 0.6725 -0.6857 -0.2786
vn 0.7139 0.6857 -0.1420
vn 0.7139 -0.6857 -0.1420
vn 0.7279 0.6857 0.0000
vn 0.7279 -0.6857 -0.0000
vn 0.7139 0.6857 0.1420
vn 0.7139 -0.6857 0.1420
vn 0.6725 0.6857 0.2786
vn 0.6725 -0.6857 0.2785
vn 0.6052 0.6857 0.4044
vn 0.6052 -0.6857 0.4044
vn 0.5147 0.6857 0.5147
vn 0.5147 -0.6857 0.5147
vn 0.4044 0.6857 0.6052
vn 0.4044 -0.6857 0.6052
vn 0.2785 0.6857 0.6725
vn 0.2785 -0.6857 0.6725
vn 0.1420 0.6857 0.7139
vn 0.1420 -0.6857 0.7139
vn 0.0000 0.6857 0.7279
vn 0.0000 -0.6857 0.7279
vn -0.1420 0.6857 0.7139
vn -0.1420 -0.6857 0.7139
vn -0.2785 0.6857 0.6725
vn -0.2785 -0.6857 0.6725
vn -0.4044 0.6857 0.6052
vn -0.4044 -0.6857 0.6052
vn -0.5147 0.6857 0.5147
vn -0.5147 -0.6857 0.5147
vn -0.6052 0.6857 0.4044
vn -0.6052 -0.6857 0.4044
vn -0.6725 0.6857 0.2786
vn -0.6725 -0.6857 0.2786
vn -0.7139 0.6857 0.1420
vn -0.7139 -0.6857 0.1420
vn -0.7279 0.6857 0.0000
vn -0.7279 -0.6857 -0.0000
vn -0.7139 0.6857 -0.1420
vn -0.7139 -0.6857 -0.1420
vn -0.6725 0.6857 -0.2785
vn -0.6725 -0.6857 -0.2786
vn -0.6052 0.6857 -0.4044
vn -0.6052 -0.6857 -0.4044
vn -0.5147 0.6857 -0.5147
vn -0.5147 -0.6857 -0.5147
vn -0.4044 0.6857 -0.6052
vn -0.4044 -0.6857 -0.6052
vn -0.2786 0.6857 -0.6725
vn -0.2786 -0.6857 -0.6725
vn -0.1420 0.6857 -0.7139
vn -0.1420 -0.6857 -0.7139
usemtl sennsa_kuro.001
s 1
f 5/5/2 6/6/3 8/7/4 7/8/5
f 7/8/5 8/7/4 10/9/6 9/10/7
f 9/10/7 10/9/6 12/11/8 11/12/9
f 11/12/9 12/11/8 14/13/10 13/14/11
f 13/14/11 14/13/10 16/15/12 15/16/13
f 15/16/13 16/15/12 18/17/14 17/18/15
f 17/18/15 18/17/14 20/19/16 19/20/17
f 19/20/17 20/19/16 22/21/18 21/22/19
f 21/22/19 22/21/18 24/23/20 23/24/21
f 23/24/21 24/23/20 26/25/22 25/26/23
f 25/26/23 26/25/22 28/27/24 27/28/25
f 27/28/25 28/27/24 30/29/26 29/30/27
f 29/30/27 30/29/26 32/31/28 31/32/29
f 31/32/29 32/31/28 34/33/30 33/34/31
f 33/34/31 34/33/30 36/35/32 35/36/33
f 35/36/33 36/35/32 38/37/34 37/38/35
f 37/38/35 38/37/34 40/39/36 39/40/37
f 39/40/37 40/39/36 42/41/38 41/42/39
f 41/42/39 42/41/38 44/43/40 43/44/41
f 43/44/41 44/43/40 46/45/42 45/46/43
f 45/46/43 46/45/42 48/47/44 47/48/45
f 47/48/45 48/47/44 50/49/46 49/50/47
f 49/50/47 50/49/46 52/51/48 51/52/49
f 51/52/49 52/51/48 54/53/50 53/54/51
f 53/54/51 54/53/50 56/55/52 55/56/53
f 55/56/53 56/55/52 58/57/54 57/58/55
f 57/58/55 58/57/54 60/59/56 59/60/57
f 59/60/57 60/59/56 62/61/58 61/62/59
f 61/62/59 62/61/58 64/63/60 63/64/61
f 63/64/61 64/63/60 66/65/62 65/66/63
f 8/67/4 6/68/3 68/69/64 66/70/62 64/71/60 62/72/58 60/73/56 58/74/54 56/75/52 54/76/50 52/77/48 50/78/46 48/79/44 46/80/42 44/81/40 42/82/38 40/83/36 38/84/34 36/85/32 34/86/30 32/87/28 30/88/26 28/89/24 26/90/22 24/91/20 22/92/18 20/93/16 18/94/14 16/95/12 14/96/10 12/97/8 10/98/6
f 65/66/63 66/65/62 68/99/64 67/100/65
f 67/100/65 68/99/64 6/101/3 5/102/2
f 5/103/2 7/104/5 9/105/7 11/106/9 13/107/11 15/108/13 17/109/15 19/110/17 21/111/19 23/112/21 25/113/23 27/114/25 29/115/27 31/116/29 33/117/31 35/118/33 37/119/35 39/120/37 41/121/39 43/122/41 45/123/43 47/124/45 49/125/47 51/126/49 53/127/51 55/128/53 57/129/55 59/130/57 61/131/59 63/132/61 65/133/63 67/134/65
o sansa_hontai_平面.002
v -0.132548 0.000000 1.497649
v 0.485934 0.000000 1.497649
v -0.132548 0.000000 0.879168
v 0.485934 0.000000 0.879168
v -0.132548 0.720459 1.497649
v 0.485934 0.720459 1.497649
v -0.132548 0.720459 0.879168
v 0.485934 0.720459 0.879168
v 0.017834 0.691214 1.347267
v 0.335552 0.691214 1.347267
v 0.017834 0.691214 1.029550
v 0.335552 0.691214 1.029550
v 0.017834 0.910379 1.347267
v 0.335552 0.910379 1.347267
v 0.017834 0.910379 1.029550
v 0.335552 0.910379 1.029550
vt 0.000000 0.000000
vt 0.000000 1.000000
vt 1.000000 1.000000
vt 1.000000 0.000000
vt 0.000000 0.000000
vt 1.000000 0.000000
vt 1.000000 1.000000
vt 0.000000 1.000000
vt 0.000000 0.000000
vt 0.000000 1.000000
vt 1.000000 1.000000
vt 1.000000 0.000000
vt 0.000000 0.000000
vt 1.000000 0.000000
vt 1.000000 1.000000
vt 0.000000 1.000000
vn 0.0000 -1.0000 0.0000
vn 0.0000 1.0000 0.0000
vn 0.0000 0.0000 1.0000
vn 1.0000 0.0000 0.0000
vn -1.0000 0.0000 0.0000
vn 0.0000 0.0000 -1.0000
usemtl sennsa_kuro.001
s off
f 69/135/66 71/136/66 72/137/66 70/138/66
f 73/139/67 74/140/67 76/141/67 75/142/67
f 69/135/68 70/138/68 74/140/68 73/139/68
f 70/138/69 72/137/69 76/141/69 74/140/69
f 71/136/70 69/135/70 73/139/70 75/142/70
f 72/137/71 71/136/71 75/142/71 76/141/71
f 77/143/66 79/144/66 80/145/66 78/146/66
f 81/147/67 82/148/67 84/149/67 83/150/67
f 80/145/71 79/144/71 83/150/71 84/149/71
f 77/143/68 78/146/68 82/148/68 81/147/68
f 78/146/69 80/145/69 84/149/69 82/148/69
f 79/144/70 77/143/70 81/147/70 83/150/70
